<svg width="60" height="60" viewBox="0 0 60 60" fill="none" xmlns="http://www.w3.org/2000/svg">
<path d="M20.8594 35.5859V30H39.1406V35.5859C39.1406 36.0303 38.9819 36.3794 38.6963 36.665C38.3789 36.9824 38.0298 37.1094 37.6172 37.1094H22.3828C21.9385 37.1094 21.5894 36.9824 21.3037 36.665C20.9863 36.3794 20.8594 36.0303 20.8594 35.5859ZM26.9531 33.4277V34.6973C26.9531 34.8242 26.9849 34.9194 27.0483 34.9829C27.1118 35.0464 27.207 35.0781 27.334 35.0781H31.6504C31.7456 35.0781 31.8408 35.0464 31.9043 34.9829C31.9678 34.9194 32.0312 34.8242 32.0312 34.6973V33.4277C32.0312 33.3325 31.9678 33.2373 31.9043 33.1738C31.8408 33.1104 31.7456 33.0469 31.6504 33.0469H27.334C27.207 33.0469 27.1118 33.1104 27.0483 33.1738C26.9849 33.2373 26.9531 33.3325 26.9531 33.4277ZM22.8906 33.4277V34.6973C22.8906 34.8242 22.9224 34.9194 22.9858 34.9829C23.0493 35.0464 23.1445 35.0781 23.2715 35.0781H25.5566C25.6519 35.0781 25.7471 35.0464 25.8105 34.9829C25.874 34.9194 25.9375 34.8242 25.9375 34.6973V33.4277C25.9375 33.3325 25.874 33.2373 25.8105 33.1738C25.7471 33.1104 25.6519 33.0469 25.5566 33.0469H23.2715C23.1445 33.0469 23.0493 33.1104 22.9858 33.1738C22.9224 33.2373 22.8906 33.3325 22.8906 33.4277ZM39.1406 24.4141C39.1406 24.0015 38.9819 23.6523 38.6963 23.335C38.3789 23.0493 38.0298 22.8906 37.6172 22.8906H22.3828C21.9385 22.8906 21.5894 23.0493 21.3037 23.335C20.9863 23.6523 20.8594 24.0015 20.8594 24.4141V25.9375H39.1406V24.4141Z" fill="#1E1F20"/>
</svg>
