<svg width="61" height="60" viewBox="0 0 61 60" fill="none" xmlns="http://www.w3.org/2000/svg">
<path d="M41.0406 32.8164C41.1741 32.8164 41.3076 32.8832 41.4077 32.9834C41.5079 33.0835 41.5747 33.217 41.5747 33.3505V34.4187C41.5747 34.5856 41.5079 34.7192 41.4077 34.8193C41.3076 34.9194 41.1741 34.9528 41.0406 34.9528H39.4383C39.4383 35.8541 39.1045 36.6219 38.5036 37.2227C37.8694 37.8569 37.1016 38.1574 36.2337 38.1574C35.3324 38.1574 34.5647 37.8569 33.9638 37.2227C33.3296 36.6219 33.0292 35.8541 33.0292 34.9528H28.7564C28.7564 35.8541 28.4226 36.6219 27.8218 37.2227C27.1875 37.8569 26.4198 38.1574 25.5519 38.1574C24.6506 38.1574 23.8828 37.8569 23.282 37.2227C22.6477 36.6219 22.3473 35.8541 22.3473 34.9528H21.8132C21.3459 34.9528 20.9787 34.8193 20.6783 34.4855C20.3445 34.1851 20.2109 33.8179 20.2109 33.3505V22.6687C20.2109 22.2347 20.3445 21.8675 20.6783 21.5337C20.9787 21.2333 21.3459 21.0664 21.8132 21.0664H32.4951C32.929 21.0664 33.2962 21.2333 33.63 21.5337C33.9304 21.8675 34.0974 22.2347 34.0974 22.6687V24.271H35.5661C36.0001 24.271 36.3672 24.4379 36.7011 24.7383L40.0391 28.0764C40.3396 28.4102 40.5065 28.7774 40.5065 29.2113V32.8164H41.0406ZM25.5519 36.5551C25.9858 36.5551 26.353 36.4216 26.6868 36.0878C26.9872 35.7873 27.1541 35.4201 27.1541 34.9528C27.1541 34.5189 26.9872 34.1517 26.6868 33.8179C26.353 33.5174 25.9858 33.3505 25.5519 33.3505C25.0845 33.3505 24.7173 33.5174 24.4169 33.8179C24.0831 34.1517 23.9496 34.5189 23.9496 34.9528C23.9496 35.4201 24.0831 35.7873 24.4169 36.0878C24.7173 36.4216 25.0845 36.5551 25.5519 36.5551ZM36.2337 36.5551C36.6677 36.5551 37.0349 36.4216 37.3687 36.0878C37.6691 35.7873 37.836 35.4201 37.836 34.9528C37.836 34.5189 37.6691 34.1517 37.3687 33.8179C37.0349 33.5174 36.6677 33.3505 36.2337 33.3505C35.7664 33.3505 35.3992 33.5174 35.0988 33.8179C34.765 34.1517 34.6314 34.5189 34.6314 34.9528C34.6314 35.4201 34.765 35.7873 35.0988 36.0878C35.3992 36.4216 35.7664 36.5551 36.2337 36.5551ZM38.9042 29.6119V29.2113L35.5661 25.8732H34.0974V29.6119H38.9042Z" fill="#1E1F20"/>
</svg>
