<svg width="61" height="60" viewBox="0 0 61 60" fill="none" xmlns="http://www.w3.org/2000/svg">
<path d="M36.7348 27.7292C37.1954 27.7292 37.5852 27.9106 37.9395 28.2373C38.2584 28.6003 38.4355 28.9995 38.4355 29.4714V36.44C38.4355 36.9481 38.2584 37.3474 37.9395 37.6741C37.5852 38.037 37.1954 38.1822 36.7348 38.1822H24.2632C23.7672 38.1822 23.3774 38.037 23.0585 37.6741C22.7042 37.3474 22.5625 36.9481 22.5625 36.44V29.4714C22.5625 28.9995 22.7042 28.6003 23.0585 28.2373C23.3774 27.9106 23.7672 27.7292 24.2632 27.7292H25.1135V25.1159C25.1135 24.136 25.3261 23.2286 25.8221 22.3576C26.3181 21.5228 26.9559 20.8694 27.8062 20.3613C28.6212 19.8532 29.5069 19.5991 30.499 19.5991C31.4557 19.5991 32.3414 19.8532 33.1918 20.3613C34.0066 20.8694 34.6444 21.5228 35.1404 22.3576C35.6365 23.2286 35.8845 24.136 35.8845 25.1159V27.7292H36.7348ZM33.05 27.7292V25.1159C33.05 24.3901 32.802 23.7731 32.306 23.2649C31.81 22.7568 31.2077 22.5028 30.499 22.5028C29.7904 22.5028 29.1881 22.7568 28.692 23.2649C28.196 23.7731 27.948 24.3901 27.948 25.1159V27.7292H33.05Z" fill="#1E1F20"/>
</svg>
